<svg width="20" height="20" viewBox="0 0 20 20" fill="none" xmlns="http://www.w3.org/2000/svg">
<g clip-path="url(#clip0_37_2066)">
<path d="M6.46597 5.54228L8.78337 3.22406L8.80087 14.5836C8.80087 15.2739 9.36049 15.8335 10.0508 15.8335C10.7411 15.8335 11.3008 15.2739 11.3008 14.5836L11.2833 3.23823L13.5873 5.54232C14.0669 6.03886 14.8582 6.05261 15.3548 5.57302C15.8513 5.09343 15.8651 4.30213 15.3855 3.80559C15.3754 3.79516 15.3652 3.78493 15.3548 3.77489L12.6782 1.09833C11.2138 -0.366102 8.83954 -0.366102 7.37511 1.09829L7.37507 1.09833L4.69854 3.77485C4.21896 4.27139 4.2327 5.06269 4.72925 5.54228C5.21364 6.01011 5.98157 6.01011 6.46597 5.54228Z" fill="#53504B"/>
<path d="M18.7492 12.0835C18.0589 12.0835 17.4992 12.6431 17.4992 13.3334V17.1591C17.4988 17.3471 17.3465 17.4995 17.1584 17.4999H2.8407C2.65266 17.4994 2.50032 17.3471 2.49989 17.1591V13.3334C2.49989 12.6431 1.94027 12.0835 1.24995 12.0835C0.559624 12.0835 0 12.6431 0 13.3334V17.1591C0.00183586 18.7272 1.2726 19.998 2.8407 19.9998H17.1584C18.7265 19.998 19.9973 18.7272 19.9991 17.1591V13.3334C19.9991 12.6431 19.4395 12.0835 18.7492 12.0835Z" fill="#53504B"/>
</g>
<defs>
<clipPath id="clip0_37_2066">
<rect width="20" height="20" fill="white"/>
</clipPath>
</defs>
</svg>
